<svg id="Layer_1" data-name="Layer 1" xmlns="http://www.w3.org/2000/svg" viewBox="0 0 190.03 77.91"><defs><style>.cls-1{fill:#223235;}.cls-2{fill:#a5b8b9;}.cls-3{fill:#4ab1c2;}.cls-4{fill:#5ca445;}</style></defs><title>mdhs-logo</title><path class="cls-1" d="M386.64,296.55l-.78,2.25q-4.57,13.34-9.15,26.67a2,2,0,0,1-2.29,1.61h-5.61c-1.53,0-2.06-.37-2.54-1.83q-2.32-7-4.63-14.07l-4.56-13.84a1.1,1.1,0,0,0-.45-.63q0,1.12,0,2.25,0,13.24,0,26.48c0,1.15-.46,1.63-1.61,1.63h-8.93c-1.28,0-1.67-.41-1.67-1.71q0-22.69,0-45.38c0-1.23.37-1.62,1.58-1.62h14.07a1.93,1.93,0,0,1,2.11,1.51q4.09,11.54,8.16,23.09c.32.92.64,1.83,1,2.74a9.48,9.48,0,0,0,.46.89c.25-.55.45-.9.58-1.27q3.2-9,6.38-18,1.33-3.75,2.67-7.5a1.93,1.93,0,0,1,2-1.43h14.15c1.07,0,1.54.46,1.54,1.53q0,22.81,0,45.61c0,1.11-.47,1.57-1.6,1.57h-8.85c-1.4,0-1.83-.43-1.83-1.85q0-13.91,0-27.83,0-.41,0-.83Z" transform="translate(-344.41 -277.19)"/><path class="cls-1" d="M403.71,302.66q0-11.22,0-22.45c0-1.46.37-1.84,1.8-1.84,5.09,0,10.17-.11,15.25.06s10.09.6,14.8,2.73c7.15,3.23,11.47,8.66,12.79,16.42a26.15,26.15,0,0,1-1,13.92,22.53,22.53,0,0,1-10.61,11.95A29.76,29.76,0,0,1,426,326.66c-5,.65-9.94.35-14.91.42-1.87,0-3.74,0-5.61,0-1.34,0-1.76-.4-1.76-1.74Q403.7,314,403.71,302.66Zm28.91,16.83c0-.5,0-.78,0-1.06-.14-2.21-.23-4.42-.44-6.61a44.82,44.82,0,0,1,.17-8.19q.26-3,.51-6c.31-3.64.62-7.29.92-10.93a1,1,0,0,0-1.15-1.23c-3.77,0-7.54,0-11.3.06a1.28,1.28,0,0,0-.93.5q-1.75,2.85-3.41,5.77a11.64,11.64,0,0,0-1.52,6.75,40.52,40.52,0,0,0,.7,4.91,4.24,4.24,0,0,1-.4,3.1c-.91,1.63-1.8,3.27-2.6,5A33.94,33.94,0,0,0,412,314.8h12a12.52,12.52,0,0,0-.15,3,13.45,13.45,0,0,0,1.25,2.82A10.65,10.65,0,0,1,432.62,319.49Z" transform="translate(-344.41 -277.19)"/><path class="cls-1" d="M495.29,302.73q0,11.34,0,22.69c0,1.24-.42,1.67-1.64,1.67H484.8c-1.28,0-1.71-.43-1.71-1.68q0-8.3,0-16.6c0-1.48-.46-1.93-1.92-1.93H466.86c-1.46,0-1.8.34-1.8,1.83q0,8.14,0,16.29c0,1.74-.35,2.1-2.06,2.1h-8.54c-1.27,0-1.72-.44-1.72-1.71q0-22.69,0-45.38c0-1.15.48-1.62,1.63-1.62h9c1.19,0,1.67.47,1.67,1.68q0,7,0,14.07c0,1.26.39,1.65,1.65,1.65h14.7c1.17,0,1.66-.51,1.66-1.69q0-7.08,0-14.15c0-1.16.4-1.56,1.56-1.56h9.09c1.14,0,1.55.43,1.55,1.58Q495.3,291.35,495.29,302.73Z" transform="translate(-344.41 -277.19)"/><path class="cls-1" d="M516,328.24c-4.33,0-8-.47-11.23-2.27-2-1.1-3.8-2.53-5.7-3.8-.59-.39-.55-.85-.16-1.33.52-.63,1.06-1.24,1.6-1.85l5.48-6a5.63,5.63,0,0,1,.51-.5.77.77,0,0,1,1.27.11,10.74,10.74,0,0,0,4.58,3.5,9.43,9.43,0,0,0,7.72-.25c2.67-1.3,2.76-4.49.36-5.75a44.07,44.07,0,0,0-5.55-2.39c-2.64-1-5.39-1.6-7.86-3-2.84-1.61-5.19-3.7-6.15-6.89a15.14,15.14,0,0,1,6.36-17.43,22.09,22.09,0,0,1,13.37-3.12,20.13,20.13,0,0,1,8.66,2.07c1.59.86,3.09,1.89,4.59,2.9.78.52.81.83.17,1.58-.8.95-1.66,1.84-2.49,2.75l-4,4.37c-.18.19-.35.4-.55.57-.51.46-1,.63-1.51,0-2.29-2.84-7.41-3.57-10.65-1.83a3.2,3.2,0,0,0-1.94,2.75,3,3,0,0,0,1.58,2.8,26,26,0,0,0,6.52,2.5,27.08,27.08,0,0,1,8,3.37,11.9,11.9,0,0,1,5.37,10.24,17,17,0,0,1-1.5,7.82,15.58,15.58,0,0,1-10.13,8.16A22.15,22.15,0,0,1,516,328.24Z" transform="translate(-344.41 -277.19)"/><path class="cls-2" d="M408.33,333h62.18v11.51h-.93q-30.16,0-60.31,0c-.77,0-1-.21-1-1C408.36,340,408.33,336.53,408.33,333Z" transform="translate(-344.41 -277.19)"/><path class="cls-3" d="M472.22,333h62.19c0,.51,0,1,0,1.5,0,3.11,0,6.22,0,9.33,0,.6-.21.69-.73.69H473c-.37,0-.77.06-.77-.51C472.22,340.32,472.22,336.69,472.22,333Z" transform="translate(-344.41 -277.19)"/><path class="cls-4" d="M344.44,344.41V333h62.07v11.45Z" transform="translate(-344.41 -277.19)"/><path class="cls-1" d="M475.54,349.16c.89-.33,1.25.05,1.52.79.42,1.15.93,2.27,1.49,3.58.57-1.33,1.13-2.45,1.51-3.63.28-.85.75-1,1.53-.75v5.71l-.73,0v-4.36l-.2-.05-.79,1.88c-.27.65-.52,1.32-.83,2a2.69,2.69,0,0,1-.52.58,2.64,2.64,0,0,1-.45-.56c-.55-1.28-1.07-2.57-1.73-3.86v4.36h-.79Z" transform="translate(-344.41 -277.19)"/><path class="cls-1" d="M351.33,354.87h-.68v-4.38l-.15,0a5.18,5.18,0,0,0-.26.48c-.5,1.19-1,2.38-1.49,3.56a.76.76,0,0,1-.47.39c-.1,0-.31-.22-.38-.39-.48-1.11-.93-2.23-1.39-3.34a1.39,1.39,0,0,0-.46-.63v4.35l-.76,0v-5.71c1.06-.28,1.09-.27,1.51.72l1.53,3.63c.53-1.27,1.06-2.38,1.46-3.54.27-.78.66-1.15,1.54-.85Z" transform="translate(-344.41 -277.19)"/><path class="cls-1" d="M429.41,354.87h-.75v-4.34l-.19,0-.79,1.9c-.29.7-.57,1.42-.89,2.11a.78.78,0,0,1-.47.39c-.1,0-.31-.22-.38-.39-.46-1.09-.9-2.19-1.35-3.28a1.89,1.89,0,0,0-.47-.72v4.36l-.75.06v-5.77c.7-.19,1.2-.14,1.49.71.42,1.21,1,2.37,1.53,3.69.56-1.32,1.11-2.46,1.51-3.65.28-.83.74-1,1.52-.73Z" transform="translate(-344.41 -277.19)"/><path class="cls-1" d="M436.67,354.87h-.77v-5.72a1.09,1.09,0,0,1,1.46.54c.84,1.34,1.74,2.63,2.77,4.16v-4.74h.79v5.73a1.08,1.08,0,0,1-1.43-.58,40.55,40.55,0,0,0-2.81-3.93Z" transform="translate(-344.41 -277.19)"/><path class="cls-1" d="M493.25,353.56v-4.44H494v5.7a1,1,0,0,1-1.37-.51,42.47,42.47,0,0,0-2.87-4v4.54H489v-5.72c.7-.26,1.11,0,1.48.61.82,1.31,1.71,2.58,2.57,3.86Z" transform="translate(-344.41 -277.19)"/><path class="cls-1" d="M455.28,352a2.94,2.94,0,0,1-3.06,3.09,3,3,0,0,1-3.06-3.12,3,3,0,0,1,3.05-3A2.9,2.9,0,0,1,455.28,352ZM450,352a2.16,2.16,0,0,0,2.21,2.33,2.33,2.33,0,0,0,0-4.66A2.17,2.17,0,0,0,450,352Z" transform="translate(-344.41 -277.19)"/><path class="cls-1" d="M392,354.91V349a19.92,19.92,0,0,1,3.32.31c1.29.33,1.9,1.68,1.71,3.19a2.91,2.91,0,0,1-2.74,2.41C393.6,354.94,392.86,354.91,392,354.91Zm.8-5.1v4.34c1.21.05,2.39.15,3.13-1a2.11,2.11,0,0,0,0-2.38C395.21,349.6,394,349.76,392.84,349.8Z" transform="translate(-344.41 -277.19)"/><path class="cls-1" d="M417.55,354.83a.9.9,0,0,1-1.28-.51,7.72,7.72,0,0,0-.84-1.43,4.34,4.34,0,0,0-.92-.69l-.23.18v2.46l-.8.07v-5.83c.88,0,1.73-.05,2.56,0a1.34,1.34,0,0,1,1.29,1.18,1.55,1.55,0,0,1-.68,1.71,5,5,0,0,1-.66.31Zm-3.26-3.17c.79-.15,1.61.28,2.11-.5a1.09,1.09,0,0,0,0-1c-.54-.66-1.32-.43-2.08-.42Z" transform="translate(-344.41 -277.19)"/><path class="cls-1" d="M467.36,352.25h-3v2.59l-.77.09v-5.8l.72-.07v2.37h3.06v-2.31h.79v5.75h-.77Z" transform="translate(-344.41 -277.19)"/><path class="cls-1" d="M508.25,352.43v2.42l-.74.06v-5.77a27,27,0,0,1,2.77,0,1.29,1.29,0,0,1,1.1,1.2,1.52,1.52,0,0,1-.65,1.58,7.09,7.09,0,0,1-.71.38l1.54,2.5a.9.9,0,0,1-1.29-.55c-.21-.45-.51-.86-.73-1.31A.9.9,0,0,0,508.25,352.43Zm0-.78c.81-.12,1.67.29,2.17-.54a1.07,1.07,0,0,0-.1-1c-.57-.6-1.33-.41-2.07-.34Z" transform="translate(-344.41 -277.19)"/><path class="cls-1" d="M482.43,354.76c.78-1.78,1.56-3.55,2.36-5.32a.69.69,0,0,1,.51-.34.68.68,0,0,1,.51.33c.79,1.8,1.56,3.6,2.33,5.41-.65.21-1,0-1.15-.59a.86.86,0,0,0-1.11-.77,2.61,2.61,0,0,1-.87,0,1.24,1.24,0,0,0-1.61,1c-.06.24-.52.37-.8.54Zm1.75-2.05h2.18l-1.1-2.65Z" transform="translate(-344.41 -277.19)"/><path class="cls-1" d="M412.64,354.82c-.66.23-1,0-1.13-.54a.93.93,0,0,0-1.18-.82c-.62.06-1.26,0-1.85,0-.59.42-.25,1.79-1.58,1.35.79-1.8,1.58-3.6,2.39-5.39a.7.7,0,0,1,.51-.35.68.68,0,0,1,.51.34C411.1,351.2,411.85,353,412.64,354.82ZM409.77,350l-1.09,2.68h2.17Z" transform="translate(-344.41 -277.19)"/><path class="cls-1" d="M525.89,349.09h3.6c.24.49.06.68-.44.68h-2.32a1.31,1.31,0,0,0-.11.31c0,1.83-.15,1.44,1.41,1.49a7.48,7.48,0,0,1,1,0c.14,0,.24.24.36.37-.12.1-.23.29-.36.29a12.33,12.33,0,0,1-1.65,0c-.61,0-.89.15-.8.79a9.66,9.66,0,0,1,0,1.12c.91,0,1.74,0,2.57,0,.5,0,.69.16.52.7h-3.8Z" transform="translate(-344.41 -277.19)"/><path class="cls-1" d="M503.29,349.76v1.79c.72,0,1.4,0,2.07,0a2,2,0,0,1,.66.31c-.23.13-.45.34-.69.36-.65.05-1.3,0-2,0v1.9c.86,0,1.67,0,2.48,0,.49,0,.7.14.52.7h-3.8v-5.79c1.13,0,2.23,0,3.33,0,.13,0,.26.23.38.35-.14.11-.28.31-.43.31C505,349.78,504.18,349.76,503.29,349.76Z" transform="translate(-344.41 -277.19)"/><path class="cls-1" d="M399,349.77v1.79c.77,0,1.5,0,2.23,0,.19,0,.36.23.55.35-.19.11-.37.31-.57.33-.7,0-1.41,0-2.18,0v1.9c.83,0,1.68,0,2.54,0,.52,0,.52,0,.49.7h-3.82v-5.76h3.63c.22.46.07.66-.44.65Z" transform="translate(-344.41 -277.19)"/><path class="cls-1" d="M431.71,352.27v1.9c.85,0,1.69,0,2.52,0,.53,0,.74.15.54.72H431v-5.81c1.14,0,2.23,0,3.33,0,.13,0,.26.22.39.34-.14.12-.28.33-.42.33-.83,0-1.67,0-2.54,0v1.79c.72,0,1.42,0,2.11,0,.21,0,.4.2.6.3-.2.13-.4.36-.61.37C433.15,352.3,432.47,352.27,431.71,352.27Z" transform="translate(-344.41 -277.19)"/><path class="cls-1" d="M473.32,349.07l.76,0c0,1.39,0,2.73,0,4.06a2.13,2.13,0,0,1-1.92,1.9,2.06,2.06,0,0,1-2.4-1.46,31.28,31.28,0,0,1-.16-4.24c0-.12.37-.25.76-.49,0,1.38,0,2.5,0,3.63s.54,1.79,1.43,1.82,1.53-.59,1.55-1.68S473.32,350.33,473.32,349.07Z" transform="translate(-344.41 -277.19)"/><path class="cls-1" d="M370.57,354.28l.45-.39a4.75,4.75,0,0,0,1.58.37,1.53,1.53,0,0,0,1-.82c.22-.48-.25-.73-.66-.9s-.85-.29-1.25-.48a1.53,1.53,0,0,1-.93-1.52,1.59,1.59,0,0,1,1-1.43,2.39,2.39,0,0,1,2.65.44l-.45.49-.26-.07a4.79,4.79,0,0,0-1.33-.24.94.94,0,0,0-.65.64,1.19,1.19,0,0,0,.41.9,3.53,3.53,0,0,0,1.08.44c1,.34,1.36.8,1.32,1.62A1.77,1.77,0,0,1,373,355,2.42,2.42,0,0,1,370.57,354.28Z" transform="translate(-344.41 -277.19)"/><path class="cls-1" d="M363,349.5c-.29.41-.47.67-1,.34a1.54,1.54,0,0,0-1.12-.11,1,1,0,0,0-.62.68,1.06,1.06,0,0,0,.38.84,4.29,4.29,0,0,0,1.15.48c.94.33,1.3.77,1.29,1.56a1.71,1.71,0,0,1-1.39,1.69,2.39,2.39,0,0,1-2.53-.73l.51-.47.29.11a3.39,3.39,0,0,0,1.3.37,1.47,1.47,0,0,0,.92-.78c.23-.48-.21-.75-.61-.93s-.84-.29-1.25-.48a1.53,1.53,0,0,1-1-1.5,1.52,1.52,0,0,1,1.07-1.51A2.44,2.44,0,0,1,363,349.5Z" transform="translate(-344.41 -277.19)"/><path class="cls-1" d="M530.56,354.25l.4-.35a4.75,4.75,0,0,0,1.58.37,1.52,1.52,0,0,0,1-.82c.08-.17-.35-.67-.65-.88a7.91,7.91,0,0,0-1.23-.5,1.63,1.63,0,0,1,.09-3,2.45,2.45,0,0,1,2.7.48l-.46.35a6,6,0,0,0-1.61-.21,1.17,1.17,0,0,0-.78.72c-.06.24.23.69.48.86s.93.26,1.3.53a2.72,2.72,0,0,1,1,1.18,1.47,1.47,0,0,1-.63,1.66A2.4,2.4,0,0,1,530.56,354.25Z" transform="translate(-344.41 -277.19)"/><path class="cls-1" d="M354.63,354.29l.45-.39a4.75,4.75,0,0,0,1.59.37,1.56,1.56,0,0,0,1-.83c.07-.15-.37-.66-.68-.87a6.88,6.88,0,0,0-1.17-.46,1.54,1.54,0,0,1-1-1.63A1.51,1.51,0,0,1,356,349a2.27,2.27,0,0,1,2.37.52l-.48.53a2,2,0,0,0-.24-.09,4.24,4.24,0,0,0-1.33-.24,1.07,1.07,0,0,0-.68.72,1.06,1.06,0,0,0,.42.82,4,4,0,0,0,1.08.44c1,.37,1.36.79,1.31,1.7A1.71,1.71,0,0,1,357,355,2.44,2.44,0,0,1,354.63,354.29Z" transform="translate(-344.41 -277.19)"/><path class="cls-1" d="M366,354.27l.55-.47a.91.91,0,0,1,.22.1,1.42,1.42,0,0,0,1.74.25,1.17,1.17,0,0,0,.51-.8c0-.22-.28-.55-.51-.69a10.61,10.61,0,0,0-1.24-.49,1.6,1.6,0,0,1-1.08-1.8,1.65,1.65,0,0,1,1.63-1.43,2.14,2.14,0,0,1,2,.6l-.37.41a6.72,6.72,0,0,0-1.63-.22,1,1,0,0,0-.71.68,1.16,1.16,0,0,0,.44.88,3.74,3.74,0,0,0,1.08.44c1,.36,1.35.81,1.28,1.72a1.72,1.72,0,0,1-1.51,1.59A2.36,2.36,0,0,1,366,354.27Z" transform="translate(-344.41 -277.19)"/><path class="cls-1" d="M497.46,354.26l.51-.45.22.08a5.39,5.39,0,0,0,1.15.4,1,1,0,0,0,1.13-.78c.15-.61-.33-.82-.78-1s-.79-.28-1.17-.45a1.48,1.48,0,0,1-.9-1.45,1.55,1.55,0,0,1,.88-1.47,2.37,2.37,0,0,1,2.69.41c-.24.41-.48.56-1,.26a1.54,1.54,0,0,0-1.13-.06,1.08,1.08,0,0,0-.59.72.94.94,0,0,0,.39.77,8.17,8.17,0,0,0,1.38.55,1.44,1.44,0,0,1,1.07,1.48,1.66,1.66,0,0,1-1.05,1.61A2.45,2.45,0,0,1,497.46,354.26Z" transform="translate(-344.41 -277.19)"/><path class="cls-1" d="M378.62,352.4v2.43c-.4.06-.79.27-.79-.37,0-1.76,0-3.51,0-5.33a25.18,25.18,0,0,1,2.84,0c.74.09,1.1.75,1.09,1.59a1.36,1.36,0,0,1-1.15,1.47A18.43,18.43,0,0,1,378.62,352.4Zm0-.83a6.22,6.22,0,0,0,1.61,0,1.12,1.12,0,0,0,.65-.82,1.1,1.1,0,0,0-.59-.85,7.12,7.12,0,0,0-1.66-.2Z" transform="translate(-344.41 -277.19)"/><path class="cls-1" d="M382.73,349.09c.88,0,1.69,0,2.5,0a1.59,1.59,0,0,1,.15,3.13c-.59.11-1.2.11-1.88.17v2.45l-.77.06Zm.77,2.54c.8-.08,1.65.3,2.15-.5a1.07,1.07,0,0,0-.09-1c-.55-.61-1.31-.44-2.06-.36Z" transform="translate(-344.41 -277.19)"/><path class="cls-1" d="M404,352.4v2.46h-.74V349.1c.89,0,1.75-.06,2.6,0a1.48,1.48,0,0,1,1.29,1.55,1.46,1.46,0,0,1-1.25,1.57C405.33,352.34,404.72,352.34,404,352.4Zm0-.78c.78-.06,1.61.31,2.13-.47a1.07,1.07,0,0,0-.06-1c-.55-.61-1.31-.44-2.07-.38Z" transform="translate(-344.41 -277.19)"/><path class="cls-1" d="M524.73,350c-.28,0-.61.1-.83,0a2.12,2.12,0,0,0-2.83.44,2.6,2.6,0,0,0,.13,3.27,2.11,2.11,0,0,0,2.92.05l.24-.15.52.41a2.82,2.82,0,0,1-4.15.27,3.22,3.22,0,0,1-.14-4.54A2.69,2.69,0,0,1,524.73,350Z" transform="translate(-344.41 -277.19)"/><path class="cls-1" d="M511.78,349.16c.62-.23.92-.05,1.11.53.43,1.32.94,2.62,1.48,4.12.26-.63.46-1.1.64-1.57.33-.86.68-1.71,1-2.58.17-.54.44-.73,1-.48-.72,1.84-1.42,3.67-2.16,5.49a.51.51,0,0,1-.92,0C513.19,352.82,512.49,351,511.78,349.16Z" transform="translate(-344.41 -277.19)"/><path class="cls-1" d="M456.46,349.07c1.13,0,2.2,0,3.27,0,.13,0,.26.22.39.34-.14.11-.27.32-.42.32-.81,0-1.61,0-2.47,0v1.87c.71,0,1.41,0,2.11,0,.53,0,.53,0,.45.74h-2.57v2.47l-.77.07Z" transform="translate(-344.41 -277.19)"/><path class="cls-1" d="M422.47,349.06c.2.77-.26.7-.66.7h-1.17v5.11h-.77v-5.08h-1.78c-.2-.46-.2-.73.34-.73Z" transform="translate(-344.41 -277.19)"/><path class="cls-1" d="M446.29,349.07c.22.72-.21.7-.62.7h-1.17v5c-.58.23-.83.12-.82-.49,0-1.47,0-2.94,0-4.54-.54,0-1,0-1.47,0-.15,0-.28-.22-.42-.34.14-.11.27-.33.41-.33C443.58,349.06,444.94,349.07,446.29,349.07Z" transform="translate(-344.41 -277.19)"/><path class="cls-1" d="M364.94,354.87h-.69v-5.76l.69,0Z" transform="translate(-344.41 -277.19)"/><path class="cls-1" d="M517.84,349.16c.52-.2.75-.08.75.49,0,1.58,0,3.15,0,4.73,0,.56-.26.61-.74.47Z" transform="translate(-344.41 -277.19)"/><path class="cls-1" d="M375.63,349.07l.7,0v5.75h-.7Z" transform="translate(-344.41 -277.19)"/><path class="cls-1" d="M387.48,349.12l.72-.06v6c-.33-.27-.69-.43-.7-.6C387.46,352.73,387.48,350.95,387.48,349.12Z" transform="translate(-344.41 -277.19)"/><path class="cls-1" d="M353.55,354.87h-.67v-5.73l.67-.09Z" transform="translate(-344.41 -277.19)"/></svg>